<?xml version="1.0" encoding="UTF-8"?>
<svg version="1.1" xmlns="http://www.w3.org/2000/svg" width="32" height="32">
<path d="M0 0 C5.47902817 2.2105096 7.67560065 7.01846408 10.75 11.8125 C11.35199219 12.71548828 11.95398438 13.61847656 12.57421875 14.54882812 C13.14269531 15.42603516 13.71117188 16.30324219 14.296875 17.20703125 C14.81604492 18.0060083 15.33521484 18.80498535 15.87011719 19.62817383 C17.13945488 22.29274074 17.22382525 24.08477316 17 27 C14.82421875 26.96875 14.82421875 26.96875 12 26 C9.94699558 23.70586835 8.40547083 21.12683541 6.8125 18.5 C5.94794338 17.1121256 5.07962834 15.72658325 4.20703125 14.34375 C3.8303833 13.72693359 3.45373535 13.11011719 3.06567383 12.47460938 C2.05292601 10.83355201 2.05292601 10.83355201 0 10 C-0.38478516 11.07701172 -0.38478516 11.07701172 -0.77734375 12.17578125 C-2.07420222 15.17140001 -3.64946373 17.54758982 -5.5625 20.1875 C-7.97200639 23.47878323 -7.97200639 23.47878323 -10 27 C-11.65 27 -13.3 27 -15 27 C-15 20.47149013 -12.03928214 16.87448376 -8.14453125 11.80078125 C-5.23065273 7.99522405 -2.61607069 4.01329026 0 0 Z " fill="#FFFFFF" transform="translate(15,3)"/>
</svg>
